<?xml version="1.0" encoding="utf-8"?>
<!-- Generator: Adobe Illustrator 26.3.1, SVG Export Plug-In . SVG Version: 6.00 Build 0)  -->
<svg version="1.1" id="Layer_1" xmlns="http://www.w3.org/2000/svg" xmlns:xlink="http://www.w3.org/1999/xlink" x="0px" y="0px"
	 viewBox="0 0 32 32" style="enable-background:new 0 0 32 32;" xml:space="preserve">
<style type="text/css">
	.st0{fill-rule:evenodd;clip-rule:evenodd;fill:#222C37;}
	.st1{fill:#FFFFFF;}
	.st2{fill-rule:evenodd;clip-rule:evenodd;fill:#FCDA86;}
	.st3{fill:#FFA50D;}
	.st4{fill:#F6820C;}
	.st5{fill:#FDE068;}
	.st6{fill:#FCCA3F;}
	.st7{fill:#EEAB37;}
</style>
<path class="st0" d="M72.8,32c8.8,0,16-7.2,16-16s-7.2-16-16-16s-16,7.2-16,16C56.8,24.8,64,32,72.8,32z"/>
<g>
	<path class="st1" d="M74.3,16l4.4-7.6l2.1,7.6l-2.1,7.6L74.3,16L74.3,16z M72.2,17.2l4.4,7.6l-7.6-2l-5.5-5.6H72.2L72.2,17.2z
		 M76.6,7.2l-4.4,7.6h-8.8l5.5-5.6L76.6,7.2L76.6,7.2z M82.8,13.4l-2.7-10l-10,2.7l-1.5,2.6h-3L58.4,16l7.3,7.3l0,0h3l1.5,2.6
		l10,2.7l2.7-10L81.3,16L82.8,13.4L82.8,13.4z"/>
</g>
<path class="st2" d="M16,32c8.8,0,16-7.2,16-16S24.8,0,16,0S0,7.2,0,16S7.1,32,16,32z"/>
<g>
	<path class="st3" d="M6.9,25.2L7,24.9l8.3-15.7l0-0.2l-3.6-6.9c-0.3-0.6-1.2-0.4-1.3,0.2L6.9,25.2z"/>
	<path class="st3" d="M18,14.2l2.7-2.8L18,6.3c-0.3-0.5-1-0.5-1.2,0L15.3,9v0.2L18,14.2z"/>
	<polygon class="st4" points="6.9,25.2 6.9,25.1 7.2,25 17.8,14.4 18,14.1 15.3,9 	"/>
	<path class="st5" d="M18.3,30.5l9.6-5.3L25.2,8.3c-0.1-0.5-0.7-0.7-1.1-0.4L6.9,25.2l9.5,5.3C17,30.8,17.7,30.8,18.3,30.5"/>
	<path class="st6" d="M27.8,25.1L25.1,8.4c-0.1-0.5-0.6-0.7-1-0.4L7,25.1l9.4,5.3c0.6,0.3,1.3,0.3,1.9,0L27.8,25.1z"/>
	<path class="st7" d="M18.3,30.3c-0.6,0.3-1.3,0.3-1.9,0l-9.5-5.2l-0.1,0.1l9.5,5.3c0.6,0.3,1.3,0.3,1.9,0l9.6-5.3l0-0.1L18.3,30.3z
		"/>
</g>
</svg>
