<?xml version="1.0" encoding="utf-8"?>
<!-- Generator: Adobe Illustrator 26.3.1, SVG Export Plug-In . SVG Version: 6.00 Build 0)  -->
<svg version="1.1" id="Layer_1" xmlns="http://www.w3.org/2000/svg" xmlns:xlink="http://www.w3.org/1999/xlink" x="0px" y="0px"
	 viewBox="0 0 44 44" style="enable-background:new 0 0 44 44;" xml:space="preserve">
<style type="text/css">
	.st0{fill:url(#SVGID_1_);}
	.st1{opacity:0.5;}
	.st2{fill:#FFFFFF;}
</style>
<linearGradient id="SVGID_1_" gradientUnits="userSpaceOnUse" x1="0" y1="22" x2="44" y2="22">
	<stop  offset="0" style="stop-color:#058EFF"/>
	<stop  offset="0.1806" style="stop-color:#2661DD"/>
	<stop  offset="0.378" style="stop-color:#4537BE"/>
	<stop  offset="0.5569" style="stop-color:#5B19A7"/>
	<stop  offset="0.7093" style="stop-color:#690799"/>
	<stop  offset="0.8172" style="stop-color:#6E0094"/>
</linearGradient>
<path class="st0" d="M44,22c0,12.1-9.9,22-22,22S0,34.1,0,22S9.9,0,22,0S44,9.9,44,22z"/>
<path class="st1" d="M35.7,38.3H8.3c-1.5,0-2.7-1.2-2.7-2.7V8.3c0-1.5,1.2-2.7,2.7-2.7h27.3c1.5,0,2.7,1.2,2.7,2.7v27.3
	C38.3,37.1,37.1,38.3,35.7,38.3z"/>
<g>
	<path class="st2" d="M10.4,28.1l1.9-1.7c0.7,2,1.2,2.6,3.7,2.6c2.4,0,3-0.6,3-2.9c0-1.7-0.7-2-3.2-2.9c-3.6-1.2-4.8-2.1-4.8-4.6
		c0-3.3,1.3-4.6,5-4.6c2.9,0,4.2,0.7,5.2,2.7l-1.7,1.9c-0.7-1.9-1.2-2.3-3.5-2.3c-2.2,0-2.6,0.5-2.6,2.4c0,1.4,0.6,1.7,2.8,2.4
		c3.8,1.2,5.2,2.2,5.2,5.1c0,3.7-1.4,5.1-5.3,5.1C12.8,31.1,11.5,30.3,10.4,28.1z"/>
	<path class="st2" d="M26.5,30.8l-4.9-16.7h2.5l3.5,12.2l3.5-12.2h2.5l-4.9,16.7H26.5z"/>
</g>
</svg>
