<?xml version="1.0" encoding="utf-8"?>
<!-- Generator: Adobe Illustrator 26.3.1, SVG Export Plug-In . SVG Version: 6.00 Build 0)  -->
<svg version="1.1" id="Layer_1" xmlns="http://www.w3.org/2000/svg" xmlns:xlink="http://www.w3.org/1999/xlink" x="0px" y="0px"
	 viewBox="0 0 32 32" style="enable-background:new 0 0 32 32;" xml:space="preserve">
<style type="text/css">
	.st0{fill-rule:evenodd;clip-rule:evenodd;fill:#222C37;}
	.st1{fill:#FFFFFF;}
	.st2{fill-rule:evenodd;clip-rule:evenodd;}
</style>
<path class="st0" d="M72.8,32c8.8,0,16-7.2,16-16c0-8.8-7.2-16-16-16c-8.8,0-16,7.2-16,16C56.8,24.8,64,32,72.8,32z"/>
<g>
	<path class="st1" d="M74.3,16l4.4-7.6l2.1,7.6l-2.1,7.6L74.3,16L74.3,16z M72.2,17.2l4.4,7.6l-7.6-2l-5.5-5.6H72.2L72.2,17.2z
		 M76.6,7.2l-4.4,7.6h-8.8l5.5-5.6L76.6,7.2L76.6,7.2z M82.8,13.4l-2.7-10l-10,2.7l-1.5,2.6l-3,0L58.4,16l7.3,7.3h0l3,0l1.5,2.6
		l10,2.7l2.7-10L81.3,16L82.8,13.4L82.8,13.4z"/>
</g>
<path class="st2" d="M16.5,32c8.8,0,16-7.2,16-16c0-8.8-7.2-16-16-16c-8.8,0-16,7.2-16,16C0.5,24.8,7.6,32,16.5,32z"/>
<g>
	<path d="M4.7,6.3h23.5c0.3,0,0.5,0.2,0.5,0.5v19c0,0.3-0.2,0.5-0.5,0.5H4.7c-0.3,0-0.5-0.2-0.5-0.5v-19C4.2,6.5,4.4,6.3,4.7,6.3z"
		/>
	<path class="st1" d="M6.9,8.4C6.8,8.3,6.7,8.3,6.6,8.3s-0.2,0-0.3,0.1C6.3,8.5,6.2,8.6,6.2,8.7c0,0.1,0,0.2,0.1,0.3l1.3,1.3
		l-1.3,1.3c-0.1,0.1-0.1,0.2-0.1,0.3c0,0.1,0,0.2,0.1,0.3c0.1,0.1,0.2,0.1,0.3,0.1c0.1,0,0.2,0,0.3-0.1l1.4-1.4
		c0.3-0.3,0.3-0.6,0-0.9L6.9,8.4L6.9,8.4z M12.5,11.6c-0.1-0.1-0.2-0.1-0.3-0.1v0H9.5v0c-0.1,0-0.2,0-0.3,0.1
		C9.1,11.7,9,11.8,9,11.9c0,0.1,0,0.2,0.1,0.3c0.1,0.1,0.2,0.1,0.3,0.1v0h2.8v0c0.1,0,0.2,0,0.3-0.1s0.1-0.2,0.1-0.3
		C12.6,11.8,12.6,11.7,12.5,11.6L12.5,11.6L12.5,11.6z"/>
</g>
</svg>
